<mxfile host="65bd71144e">
    <diagram id="T9uuaTeBy4bPSP1g8a4x" name="Page-1">
        <mxGraphModel dx="258" dy="611" grid="1" gridSize="10" guides="1" tooltips="1" connect="1" arrows="1" fold="1" page="1" pageScale="1" pageWidth="827" pageHeight="1169" background="#FFFFFF" math="0" shadow="0">
            <root>
                <mxCell id="0"/>
                <mxCell id="1" parent="0"/>
                <mxCell id="240" value="applied to" style="edgeStyle=orthogonalEdgeStyle;rounded=0;html=1;exitX=1;exitY=0.5;exitDx=0;exitDy=0;entryX=0;entryY=0.5;entryDx=0;entryDy=0;endArrow=block;endFill=1;fillColor=#dae8fc;strokeColor=#6c8ebf;startSize=3;endSize=3;" parent="1" source="236" target="237" edge="1">
                    <mxGeometry relative="1" as="geometry"/>
                </mxCell>
                <mxCell id="236" value="" style="rounded=0;whiteSpace=wrap;html=1;fillColor=#f5f5f5;fontColor=#333333;strokeColor=#666666;" parent="1" vertex="1">
                    <mxGeometry x="240" y="160" width="300" height="180" as="geometry"/>
                </mxCell>
                <mxCell id="228" value="" style="rounded=0;whiteSpace=wrap;html=1;fillColor=#f5f5f5;fontColor=#333333;strokeColor=#666666;" parent="1" vertex="1">
                    <mxGeometry x="30" y="30" width="200" height="120" as="geometry"/>
                </mxCell>
                <mxCell id="214" value="outcomes" style="edgeStyle=orthogonalEdgeStyle;html=1;exitX=1;exitY=0.5;exitDx=0;exitDy=0;entryX=0.5;entryY=0;entryDx=0;entryDy=0;endArrow=block;endFill=1;startSize=3;endSize=3;rounded=0;fillColor=#d5e8d4;strokeColor=#82b366;labelBackgroundColor=none;" parent="1" source="208" target="210" edge="1">
                    <mxGeometry x="-0.3332" relative="1" as="geometry">
                        <mxPoint as="offset"/>
                    </mxGeometry>
                </mxCell>
                <mxCell id="208" value="Mission Analysis" style="rounded=0;whiteSpace=wrap;html=1;" parent="1" vertex="1">
                    <mxGeometry x="40" y="40" width="80" height="40" as="geometry"/>
                </mxCell>
                <mxCell id="216" value="outcomes" style="edgeStyle=orthogonalEdgeStyle;rounded=0;html=1;exitX=1;exitY=0.5;exitDx=0;exitDy=0;entryX=0.5;entryY=0;entryDx=0;entryDy=0;endArrow=block;endFill=1;startSize=3;endSize=3;fillColor=#d5e8d4;strokeColor=#82b366;labelBackgroundColor=none;" parent="1" source="210" target="211" edge="1">
                    <mxGeometry x="-0.3332" relative="1" as="geometry">
                        <mxPoint x="310" y="130" as="sourcePoint"/>
                        <mxPoint as="offset"/>
                    </mxGeometry>
                </mxCell>
                <mxCell id="243" value="applied to" style="edgeStyle=orthogonalEdgeStyle;rounded=0;html=1;exitX=1;exitY=0.25;exitDx=0;exitDy=0;entryX=0.5;entryY=0;entryDx=0;entryDy=0;endArrow=block;endFill=1;fillColor=#dae8fc;strokeColor=#6c8ebf;endSize=3;startSize=3;" parent="1" source="210" target="237" edge="1">
                    <mxGeometry relative="1" as="geometry"/>
                </mxCell>
                <mxCell id="210" value="Stakeholder Needs &amp;amp; Requirements" style="rounded=0;whiteSpace=wrap;html=1;" parent="1" vertex="1">
                    <mxGeometry x="140" y="100" width="80" height="40" as="geometry"/>
                </mxCell>
                <mxCell id="217" value="feedbacks" style="edgeStyle=orthogonalEdgeStyle;rounded=0;html=1;exitX=0;exitY=0.5;exitDx=0;exitDy=0;entryX=0.5;entryY=1;entryDx=0;entryDy=0;endArrow=block;endFill=1;startSize=3;endSize=3;fillColor=#f8cecc;strokeColor=#b85450;labelBackgroundColor=none;" parent="1" source="211" target="210" edge="1">
                    <mxGeometry x="-0.3335" relative="1" as="geometry">
                        <mxPoint as="offset"/>
                    </mxGeometry>
                </mxCell>
                <mxCell id="232" style="edgeStyle=elbowEdgeStyle;rounded=0;html=1;exitX=1;exitY=0.5;exitDx=0;exitDy=0;entryX=0.5;entryY=0;entryDx=0;entryDy=0;labelBackgroundColor=none;endArrow=block;endFill=1;startSize=3;endSize=3;fillColor=#d5e8d4;strokeColor=#82b366;" parent="1" source="211" target="213" edge="1">
                    <mxGeometry relative="1" as="geometry">
                        <Array as="points">
                            <mxPoint x="490" y="240"/>
                        </Array>
                    </mxGeometry>
                </mxCell>
                <mxCell id="211" value="System Requirements" style="rounded=0;whiteSpace=wrap;html=1;" parent="1" vertex="1">
                    <mxGeometry x="250" y="170" width="80" height="40" as="geometry"/>
                </mxCell>
                <mxCell id="224" value="outcomes" style="edgeStyle=orthogonalEdgeStyle;rounded=0;html=1;exitX=1;exitY=0.5;exitDx=0;exitDy=0;entryX=0.5;entryY=0;entryDx=0;entryDy=0;endArrow=block;endFill=1;startSize=3;endSize=3;fillColor=#d5e8d4;strokeColor=#82b366;labelBackgroundColor=none;" parent="1" source="212" target="213" edge="1">
                    <mxGeometry x="-0.3332" relative="1" as="geometry">
                        <mxPoint as="offset"/>
                    </mxGeometry>
                </mxCell>
                <mxCell id="212" value="Logical Architecture" style="rounded=0;whiteSpace=wrap;html=1;" parent="1" vertex="1">
                    <mxGeometry x="350" y="230" width="80" height="40" as="geometry"/>
                </mxCell>
                <mxCell id="264" value="outcomes" style="edgeStyle=orthogonalEdgeStyle;rounded=0;html=1;exitX=0.5;exitY=1;exitDx=0;exitDy=0;entryX=0.5;entryY=0;entryDx=0;entryDy=0;endArrow=blockThin;endFill=1;fillColor=#d5e8d4;strokeColor=#82b366;endSize=3;startSize=3;" parent="1" source="213" target="249" edge="1">
                    <mxGeometry relative="1" as="geometry">
                        <Array as="points">
                            <mxPoint x="490" y="370"/>
                            <mxPoint x="180" y="370"/>
                        </Array>
                        <mxPoint as="offset"/>
                    </mxGeometry>
                </mxCell>
                <mxCell id="213" value="Physical Architecture" style="rounded=0;whiteSpace=wrap;html=1;" parent="1" vertex="1">
                    <mxGeometry x="450" y="290" width="80" height="40" as="geometry"/>
                </mxCell>
                <mxCell id="215" value="feedbacks" style="edgeStyle=orthogonalEdgeStyle;rounded=0;html=1;exitX=0;exitY=0.5;exitDx=0;exitDy=0;entryX=0.5;entryY=1;entryDx=0;entryDy=0;endArrow=block;endFill=1;startSize=3;endSize=3;fillColor=#f8cecc;strokeColor=#b85450;labelBackgroundColor=none;" parent="1" source="210" target="208" edge="1">
                    <mxGeometry x="-0.3335" relative="1" as="geometry">
                        <mxPoint as="offset"/>
                    </mxGeometry>
                </mxCell>
                <mxCell id="226" style="edgeStyle=orthogonalEdgeStyle;rounded=0;html=1;exitX=0;exitY=0.5;exitDx=0;exitDy=0;entryX=0.5;entryY=1;entryDx=0;entryDy=0;endArrow=block;endFill=1;startSize=3;endSize=3;snapToPoint=0;fixDash=0;noJump=0;fillColor=#f8cecc;strokeColor=#b85450;" parent="1" source="213" target="211" edge="1">
                    <mxGeometry relative="1" as="geometry"/>
                </mxCell>
                <mxCell id="225" value="feedbacks" style="edgeStyle=orthogonalEdgeStyle;rounded=0;html=1;exitX=0;exitY=0.5;exitDx=0;exitDy=0;entryX=0.5;entryY=1;entryDx=0;entryDy=0;endArrow=block;endFill=1;startSize=3;endSize=3;fillColor=#f8cecc;strokeColor=#b85450;labelBackgroundColor=none;" parent="1" source="213" target="212" edge="1">
                    <mxGeometry x="-0.3333" relative="1" as="geometry">
                        <mxPoint as="offset"/>
                    </mxGeometry>
                </mxCell>
                <mxCell id="223" style="edgeStyle=orthogonalEdgeStyle;rounded=0;html=1;exitX=0;exitY=0.5;exitDx=0;exitDy=0;entryX=0.5;entryY=1;entryDx=0;entryDy=0;endArrow=block;endFill=1;startSize=3;endSize=3;fillColor=#f8cecc;strokeColor=#b85450;" parent="1" source="212" target="208" edge="1">
                    <mxGeometry relative="1" as="geometry"/>
                </mxCell>
                <mxCell id="221" value="feedbacks" style="edgeStyle=orthogonalEdgeStyle;rounded=0;html=1;exitX=0;exitY=0.5;exitDx=0;exitDy=0;entryX=0.5;entryY=1;entryDx=0;entryDy=0;endArrow=block;endFill=1;startSize=3;endSize=3;fillColor=#f8cecc;strokeColor=#b85450;labelBackgroundColor=none;" parent="1" source="212" target="211" edge="1">
                    <mxGeometry x="-0.3335" relative="1" as="geometry">
                        <mxPoint as="offset"/>
                    </mxGeometry>
                </mxCell>
                <mxCell id="230" value="Concept Definition" style="rounded=0;whiteSpace=wrap;html=1;fillColor=none;strokeColor=none;fontStyle=1" parent="1" vertex="1">
                    <mxGeometry x="120" width="110" height="30" as="geometry"/>
                </mxCell>
                <mxCell id="231" value="System Definition" style="rounded=0;whiteSpace=wrap;html=1;fillColor=none;strokeColor=none;fontStyle=1" parent="1" vertex="1">
                    <mxGeometry x="430" y="130" width="110" height="30" as="geometry"/>
                </mxCell>
                <mxCell id="220" value="outcomes" style="edgeStyle=orthogonalEdgeStyle;rounded=0;html=1;exitX=1;exitY=0.5;exitDx=0;exitDy=0;entryX=0.5;entryY=0;entryDx=0;entryDy=0;endArrow=block;endFill=1;startSize=3;endSize=3;fillColor=#d5e8d4;strokeColor=#82b366;labelBackgroundColor=none;" parent="1" source="211" target="212" edge="1">
                    <mxGeometry x="-0.3332" relative="1" as="geometry">
                        <mxPoint as="offset"/>
                    </mxGeometry>
                </mxCell>
                <mxCell id="239" style="edgeStyle=orthogonalEdgeStyle;html=1;exitX=0.5;exitY=1;exitDx=0;exitDy=0;entryX=0.5;entryY=0;entryDx=0;entryDy=0;rounded=0;endArrow=none;endFill=0;fillColor=#dae8fc;strokeColor=#6c8ebf;" parent="1" source="237" target="238" edge="1">
                    <mxGeometry relative="1" as="geometry"/>
                </mxCell>
                <mxCell id="242" value="composed of" style="edgeStyle=orthogonalEdgeStyle;rounded=0;html=1;exitX=0.5;exitY=1;exitDx=0;exitDy=0;entryX=0.5;entryY=0;entryDx=0;entryDy=0;endArrow=none;endFill=0;fillColor=#dae8fc;strokeColor=#6c8ebf;" parent="1" source="237" target="241" edge="1">
                    <mxGeometry x="-0.6471" relative="1" as="geometry">
                        <mxPoint as="offset"/>
                    </mxGeometry>
                </mxCell>
                <mxCell id="237" value="SoI" style="rounded=0;whiteSpace=wrap;html=1;fillColor=#dae8fc;strokeColor=#6c8ebf;" parent="1" vertex="1">
                    <mxGeometry x="610" y="230" width="80" height="40" as="geometry"/>
                </mxCell>
                <mxCell id="238" value="S1" style="rounded=0;whiteSpace=wrap;html=1;fillColor=#dae8fc;strokeColor=#6c8ebf;" parent="1" vertex="1">
                    <mxGeometry x="560" y="390" width="80" height="40" as="geometry"/>
                </mxCell>
                <mxCell id="241" value="E" style="rounded=0;whiteSpace=wrap;html=1;fillColor=#d5e8d4;strokeColor=#82b366;" parent="1" vertex="1">
                    <mxGeometry x="680" y="390" width="40" height="40" as="geometry"/>
                </mxCell>
                <mxCell id="267" value="applied to" style="edgeStyle=orthogonalEdgeStyle;rounded=0;html=1;exitX=1;exitY=0.5;exitDx=0;exitDy=0;entryX=0.5;entryY=1;entryDx=0;entryDy=0;endArrow=block;endFill=1;startSize=3;endSize=3;fillColor=#dae8fc;strokeColor=#6c8ebf;" parent="1" source="244" target="238" edge="1">
                    <mxGeometry x="0.3333" relative="1" as="geometry">
                        <mxPoint as="offset"/>
                    </mxGeometry>
                </mxCell>
                <mxCell id="268" value="ITERATIONS&lt;br&gt;THROUGH&lt;br&gt;FEEDBACKS" style="edgeStyle=orthogonalEdgeStyle;rounded=0;html=1;exitX=0;exitY=0.5;exitDx=0;exitDy=0;entryX=0;entryY=0.75;entryDx=0;entryDy=0;endArrow=block;endFill=1;startSize=3;endSize=3;fillColor=#f8cecc;strokeColor=#b85450;fontColor=#B85450;" parent="1" source="244" target="236" edge="1">
                    <mxGeometry x="0.0687" relative="1" as="geometry">
                        <Array as="points">
                            <mxPoint x="80" y="590"/>
                            <mxPoint x="80" y="295"/>
                        </Array>
                        <mxPoint as="offset"/>
                    </mxGeometry>
                </mxCell>
                <mxCell id="244" value="" style="rounded=0;whiteSpace=wrap;html=1;fillColor=#f5f5f5;fontColor=#333333;strokeColor=#666666;" parent="1" vertex="1">
                    <mxGeometry x="240" y="460" width="300" height="180" as="geometry"/>
                </mxCell>
                <mxCell id="248" value="outcomes" style="edgeStyle=orthogonalEdgeStyle;rounded=0;html=1;exitX=1;exitY=0.5;exitDx=0;exitDy=0;entryX=0.5;entryY=0;entryDx=0;entryDy=0;endArrow=block;endFill=1;startSize=3;endSize=3;fillColor=#d5e8d4;strokeColor=#82b366;labelBackgroundColor=none;" parent="1" source="249" target="252" edge="1">
                    <mxGeometry x="-0.3332" relative="1" as="geometry">
                        <mxPoint x="310" y="430" as="sourcePoint"/>
                        <mxPoint as="offset"/>
                    </mxGeometry>
                </mxCell>
                <mxCell id="265" value="RECURSION" style="edgeStyle=orthogonalEdgeStyle;rounded=0;html=1;exitX=1;exitY=0.25;exitDx=0;exitDy=0;entryX=0;entryY=0.5;entryDx=0;entryDy=0;endArrow=block;endFill=1;startSize=3;endSize=3;fillColor=#dae8fc;strokeColor=#6c8ebf;fontColor=#6C8EBF;" parent="1" source="249" target="238" edge="1">
                    <mxGeometry relative="1" as="geometry">
                        <mxPoint x="560" y="410" as="targetPoint"/>
                    </mxGeometry>
                </mxCell>
                <mxCell id="249" value="Stakeholder Needs &amp;amp; Requirements" style="rounded=0;whiteSpace=wrap;html=1;" parent="1" vertex="1">
                    <mxGeometry x="140" y="400" width="80" height="40" as="geometry"/>
                </mxCell>
                <mxCell id="250" value="feedbacks" style="edgeStyle=orthogonalEdgeStyle;rounded=0;html=1;exitX=0;exitY=0.5;exitDx=0;exitDy=0;entryX=0.5;entryY=1;entryDx=0;entryDy=0;endArrow=block;endFill=1;startSize=3;endSize=3;fillColor=#f8cecc;strokeColor=#b85450;labelBackgroundColor=none;" parent="1" source="252" target="249" edge="1">
                    <mxGeometry x="-0.3335" relative="1" as="geometry">
                        <mxPoint as="offset"/>
                    </mxGeometry>
                </mxCell>
                <mxCell id="251" style="edgeStyle=elbowEdgeStyle;rounded=0;html=1;exitX=1;exitY=0.5;exitDx=0;exitDy=0;entryX=0.5;entryY=0;entryDx=0;entryDy=0;labelBackgroundColor=none;endArrow=block;endFill=1;startSize=3;endSize=3;fillColor=#d5e8d4;strokeColor=#82b366;" parent="1" source="252" target="255" edge="1">
                    <mxGeometry relative="1" as="geometry">
                        <Array as="points">
                            <mxPoint x="490" y="540"/>
                        </Array>
                    </mxGeometry>
                </mxCell>
                <mxCell id="252" value="System Requirements" style="rounded=0;whiteSpace=wrap;html=1;" parent="1" vertex="1">
                    <mxGeometry x="250" y="470" width="80" height="40" as="geometry"/>
                </mxCell>
                <mxCell id="253" value="outcomes" style="edgeStyle=orthogonalEdgeStyle;rounded=0;html=1;exitX=1;exitY=0.5;exitDx=0;exitDy=0;entryX=0.5;entryY=0;entryDx=0;entryDy=0;endArrow=block;endFill=1;startSize=3;endSize=3;fillColor=#d5e8d4;strokeColor=#82b366;labelBackgroundColor=none;" parent="1" source="254" target="255" edge="1">
                    <mxGeometry x="-0.3332" relative="1" as="geometry">
                        <mxPoint as="offset"/>
                    </mxGeometry>
                </mxCell>
                <mxCell id="254" value="Logical Architecture" style="rounded=0;whiteSpace=wrap;html=1;" parent="1" vertex="1">
                    <mxGeometry x="350" y="530" width="80" height="40" as="geometry"/>
                </mxCell>
                <mxCell id="255" value="Physical Architecture" style="rounded=0;whiteSpace=wrap;html=1;" parent="1" vertex="1">
                    <mxGeometry x="450" y="590" width="80" height="40" as="geometry"/>
                </mxCell>
                <mxCell id="257" style="edgeStyle=orthogonalEdgeStyle;rounded=0;html=1;exitX=0;exitY=0.5;exitDx=0;exitDy=0;entryX=0.5;entryY=1;entryDx=0;entryDy=0;endArrow=block;endFill=1;startSize=3;endSize=3;snapToPoint=0;fixDash=0;noJump=0;fillColor=#f8cecc;strokeColor=#b85450;" parent="1" source="255" target="252" edge="1">
                    <mxGeometry relative="1" as="geometry"/>
                </mxCell>
                <mxCell id="258" value="feedbacks" style="edgeStyle=orthogonalEdgeStyle;rounded=0;html=1;exitX=0;exitY=0.5;exitDx=0;exitDy=0;entryX=0.5;entryY=1;entryDx=0;entryDy=0;endArrow=block;endFill=1;startSize=3;endSize=3;fillColor=#f8cecc;strokeColor=#b85450;labelBackgroundColor=none;" parent="1" source="255" target="254" edge="1">
                    <mxGeometry x="-0.3333" relative="1" as="geometry">
                        <mxPoint as="offset"/>
                    </mxGeometry>
                </mxCell>
                <mxCell id="260" value="feedbacks" style="edgeStyle=orthogonalEdgeStyle;rounded=0;html=1;exitX=0;exitY=0.5;exitDx=0;exitDy=0;entryX=0.5;entryY=1;entryDx=0;entryDy=0;endArrow=block;endFill=1;startSize=3;endSize=3;fillColor=#f8cecc;strokeColor=#b85450;labelBackgroundColor=none;" parent="1" source="254" target="252" edge="1">
                    <mxGeometry x="-0.3335" relative="1" as="geometry">
                        <mxPoint as="offset"/>
                    </mxGeometry>
                </mxCell>
                <mxCell id="262" value="System Definition" style="rounded=0;whiteSpace=wrap;html=1;fillColor=none;strokeColor=none;fontStyle=1" parent="1" vertex="1">
                    <mxGeometry x="430" y="430" width="110" height="30" as="geometry"/>
                </mxCell>
                <mxCell id="263" value="outcomes" style="edgeStyle=orthogonalEdgeStyle;rounded=0;html=1;exitX=1;exitY=0.5;exitDx=0;exitDy=0;entryX=0.5;entryY=0;entryDx=0;entryDy=0;endArrow=block;endFill=1;startSize=3;endSize=3;fillColor=#d5e8d4;strokeColor=#82b366;labelBackgroundColor=none;" parent="1" source="252" target="254" edge="1">
                    <mxGeometry x="-0.3332" relative="1" as="geometry">
                        <mxPoint as="offset"/>
                    </mxGeometry>
                </mxCell>
            </root>
        </mxGraphModel>
    </diagram>
</mxfile>